# xmcd CD Database Entry
#
# Track frame offsets:
# 150
# 22332
# 38982
# 54411
# 76531
# 95424
# 119505
# 141349
# 155589
# 174564
# 194127
# 216074
# 237157
#
# Disc length: 3483 seconds
#
# Revision: 2
# Processed by: cddbd v1.4PL0 Copyright (c) Steve Scherf et al.
# Submitted via: tcd 2.0b
#
DISCID=b70d990d
DTITLE=不明 - 不明
DYEAR=1900
DGENRE=
TTITLE0=第 1 音軌
TTITLE1=第 2 音軌
TTITLE2=第 3 音軌
TTITLE3=第 4 音軌
TTITLE4=第 5 音軌
TTITLE5=第 6 音軌
TTITLE6=第 7 音軌
TTITLE7=第 8 音軌
TTITLE8=第 9 音軌
TTITLE9=第 10 音軌
TTITLE10=第 11 音軌
TTITLE11=第 12 音軌
TTITLE12=第 13 音軌
EXTD=
EXTT0=
EXTT1=
EXTT2=
EXTT3=
EXTT4=
EXTT5=
EXTT6=
EXTT7=
EXTT8=
EXTT9=
EXTT10=
EXTT11=
EXTT12=
PLAYORDER=
